<svg width="31" height="23" viewBox="0 0 31 23" fill="none" xmlns="http://www.w3.org/2000/svg">
<path d="M0.639343 5.28886C0.639343 4.22869 1.49878 3.36926 2.55894 3.36926H4.47853C5.53869 3.36926 6.39812 4.22869 6.39812 5.28885V14.8868C6.39812 15.947 7.25755 16.8064 8.31771 16.8064H21.7549C22.815 16.8064 23.6745 15.947 23.6745 14.8868V5.28885C23.6745 4.22869 24.5339 3.36926 25.5941 3.36926H27.5136C28.5738 3.36926 29.4332 4.22869 29.4332 5.28886V17.7662C29.4332 20.4166 27.2847 22.5652 24.6343 22.5652H5.43833C2.78792 22.5652 0.639343 20.4166 0.639343 17.7662V5.28886Z" fill="#FFCC00"/>
<path d="M7.35785 3.36926C7.35785 1.77902 8.647 0.489868 10.2372 0.489868H19.8352C21.4254 0.489868 22.7146 1.77902 22.7146 3.36926V13.927C22.7146 14.4571 22.2849 14.8868 21.7548 14.8868H8.31765C7.78756 14.8868 7.35785 14.4571 7.35785 13.927V3.36926Z" fill="#FFCC00"/>
</svg>
