<svg width="32" height="23" viewBox="0 0 32 23" fill="none" xmlns="http://www.w3.org/2000/svg">
<path d="M0.830139 5.28394C0.830139 4.22378 1.68957 3.36435 2.74973 3.36435H4.66932C5.72949 3.36435 6.58892 4.22378 6.58892 5.28394V14.8819C6.58892 15.9421 7.44835 16.8015 8.50851 16.8015H21.9457C23.0058 16.8015 23.8653 15.9421 23.8653 14.8819V5.28394C23.8653 4.22378 24.7247 3.36435 25.7849 3.36435H27.7044C28.7646 3.36435 29.624 4.22378 29.624 5.28394V17.7613C29.624 20.4117 27.4755 22.5603 24.8251 22.5603H5.62913C2.97872 22.5603 0.830139 20.4117 0.830139 17.7613V5.28394Z" fill="#D6D6D6"/>
<path d="M7.54877 3.36432C7.54877 1.77407 8.83791 0.484924 10.4282 0.484924H20.0261C21.6164 0.484924 22.9055 1.77407 22.9055 3.36431V13.9221C22.9055 14.4522 22.4758 14.8819 21.9457 14.8819H8.50856C7.97848 14.8819 7.54877 14.4522 7.54877 13.9221V3.36432Z" fill="#D6D6D6"/>
</svg>
