<svg width="448" height="448" viewBox="0 0 448 448" fill="none" xmlns="http://www.w3.org/2000/svg">
<path d="M448 96C448 79.0262 441.257 62.7475 429.255 50.7452C417.252 38.7428 400.974 32 384 32H368V16.45C368 7.84 361.38 0.450005 352.77 0.0200046C350.607 -0.0842274 348.445 0.251846 346.415 1.00786C344.385 1.76388 342.53 2.9241 340.962 4.41822C339.394 5.91233 338.146 7.70924 337.293 9.70005C336.44 11.6909 336 13.8341 336 16V32H112V16.45C112 7.84 105.38 0.450005 96.77 0.0200046C94.6067 -0.0842274 92.4447 0.251846 90.415 1.00786C88.3854 1.76388 86.5304 2.9241 84.9624 4.41822C83.3944 5.91233 82.1461 7.70924 81.2931 9.70005C80.4401 11.6909 80.0002 13.8341 80 16V32H64C47.0261 32 30.7475 38.7428 18.7452 50.7452C6.74284 62.7475 0 79.0262 0 96V108C0 109.061 0.421428 110.078 1.17157 110.828C1.92172 111.579 2.93913 112 4 112H444C445.061 112 446.078 111.579 446.828 110.828C447.579 110.078 448 109.061 448 108V96ZM0 384C0 400.974 6.74284 417.252 18.7452 429.255C30.7475 441.257 47.0261 448 64 448H384C400.974 448 417.252 441.257 429.255 429.255C441.257 417.252 448 400.974 448 384V147C448 146.204 447.684 145.441 447.121 144.879C446.559 144.316 445.796 144 445 144H3C2.20435 144 1.44129 144.316 0.878681 144.879C0.316072 145.441 0 146.204 0 147V384ZM344 176C348.747 176 353.387 177.408 357.334 180.045C361.28 182.682 364.357 186.43 366.173 190.816C367.99 195.201 368.465 200.027 367.539 204.682C366.613 209.338 364.327 213.614 360.971 216.971C357.614 220.327 353.338 222.613 348.682 223.539C344.027 224.465 339.201 223.99 334.816 222.173C330.43 220.357 326.682 217.28 324.045 213.334C321.408 209.387 320 204.747 320 200C320 193.635 322.529 187.53 327.029 183.029C331.53 178.529 337.635 176 344 176ZM344 256C348.747 256 353.387 257.408 357.334 260.045C361.28 262.682 364.357 266.43 366.173 270.816C367.99 275.201 368.465 280.027 367.539 284.682C366.613 289.338 364.327 293.614 360.971 296.971C357.614 300.327 353.338 302.613 348.682 303.539C344.027 304.465 339.201 303.99 334.816 302.173C330.43 300.357 326.682 297.28 324.045 293.334C321.408 289.387 320 284.747 320 280C320 273.635 322.529 267.53 327.029 263.029C331.53 258.529 337.635 256 344 256ZM264 176C268.747 176 273.387 177.408 277.334 180.045C281.28 182.682 284.357 186.43 286.173 190.816C287.99 195.201 288.465 200.027 287.539 204.682C286.613 209.338 284.327 213.614 280.971 216.971C277.614 220.327 273.338 222.613 268.682 223.539C264.027 224.465 259.201 223.99 254.816 222.173C250.43 220.357 246.682 217.28 244.045 213.334C241.408 209.387 240 204.747 240 200C240 193.635 242.529 187.53 247.029 183.029C251.53 178.529 257.635 176 264 176ZM264 256C268.747 256 273.387 257.408 277.334 260.045C281.28 262.682 284.357 266.43 286.173 270.816C287.99 275.201 288.465 280.027 287.539 284.682C286.613 289.338 284.327 293.614 280.971 296.971C277.614 300.327 273.338 302.613 268.682 303.539C264.027 304.465 259.201 303.99 254.816 302.173C250.43 300.357 246.682 297.28 244.045 293.334C241.408 289.387 240 284.747 240 280C240 273.635 242.529 267.53 247.029 263.029C251.53 258.529 257.635 256 264 256ZM264 336C268.747 336 273.387 337.408 277.334 340.045C281.28 342.682 284.357 346.43 286.173 350.816C287.99 355.201 288.465 360.027 287.539 364.682C286.613 369.338 284.327 373.614 280.971 376.971C277.614 380.327 273.338 382.613 268.682 383.539C264.027 384.465 259.201 383.99 254.816 382.173C250.43 380.357 246.682 377.28 244.045 373.334C241.408 369.387 240 364.747 240 360C240 353.635 242.529 347.53 247.029 343.029C251.53 338.529 257.635 336 264 336ZM184 256C188.747 256 193.387 257.408 197.334 260.045C201.28 262.682 204.357 266.43 206.173 270.816C207.99 275.201 208.465 280.027 207.539 284.682C206.613 289.338 204.327 293.614 200.971 296.971C197.614 300.327 193.338 302.613 188.682 303.539C184.027 304.465 179.201 303.99 174.816 302.173C170.43 300.357 166.682 297.28 164.045 293.334C161.408 289.387 160 284.747 160 280C160 273.635 162.529 267.53 167.029 263.029C171.53 258.529 177.635 256 184 256ZM184 336C188.747 336 193.387 337.408 197.334 340.045C201.28 342.682 204.357 346.43 206.173 350.816C207.99 355.201 208.465 360.027 207.539 364.682C206.613 369.338 204.327 373.614 200.971 376.971C197.614 380.327 193.338 382.613 188.682 383.539C184.027 384.465 179.201 383.99 174.816 382.173C170.43 380.357 166.682 377.28 164.045 373.334C161.408 369.387 160 364.747 160 360C160 353.635 162.529 347.53 167.029 343.029C171.53 338.529 177.635 336 184 336ZM104 256C108.747 256 113.387 257.408 117.334 260.045C121.28 262.682 124.357 266.43 126.173 270.816C127.99 275.201 128.465 280.027 127.539 284.682C126.613 289.338 124.327 293.614 120.971 296.971C117.614 300.327 113.338 302.613 108.682 303.539C104.027 304.465 99.201 303.99 94.8156 302.173C90.4302 300.357 86.6819 297.28 84.0447 293.334C81.4076 289.387 80 284.747 80 280C80 273.635 82.5286 267.53 87.0294 263.029C91.5303 258.529 97.6348 256 104 256ZM104 336C108.747 336 113.387 337.408 117.334 340.045C121.28 342.682 124.357 346.43 126.173 350.816C127.99 355.201 128.465 360.027 127.539 364.682C126.613 369.338 124.327 373.614 120.971 376.971C117.614 380.327 113.338 382.613 108.682 383.539C104.027 384.465 99.201 383.99 94.8156 382.173C90.4302 380.357 86.6819 377.28 84.0447 373.334C81.4076 369.387 80 364.747 80 360C80 353.635 82.5286 347.53 87.0294 343.029C91.5303 338.529 97.6348 336 104 336Z" fill="#213E62"/>
</svg>
