<svg width="448" height="448" viewBox="0 0 448 448" fill="none" xmlns="http://www.w3.org/2000/svg">
<path d="M359 448C339.48 448 312.06 440.94 271 418C221.07 390 182.45 364.15 132.79 314.62C84.9104 266.77 61.6104 235.79 29.0004 176.45C-7.83957 109.45 -1.55957 74.33 5.46043 59.32C13.8204 41.38 26.1604 30.65 42.1104 20C51.1699 14.0644 60.7571 8.97617 70.7504 4.8C71.7504 4.37 72.6804 3.96 73.5104 3.59C78.4604 1.36 85.9604 -2.01 95.4604 1.59C101.8 3.97 107.46 8.84 116.32 17.59C134.49 35.51 159.32 75.42 168.48 95.02C174.63 108.23 178.7 116.95 178.71 126.73C178.71 138.18 172.95 147.01 165.96 156.54C164.65 158.33 163.35 160.04 162.09 161.7C154.48 171.7 152.81 174.59 153.91 179.75C156.14 190.12 172.77 220.99 200.1 248.26C227.43 275.53 257.41 291.11 267.82 293.33C273.2 294.48 276.15 292.74 286.47 284.86C287.95 283.73 289.47 282.56 291.06 281.39C301.72 273.46 310.14 267.85 321.32 267.85H321.38C331.11 267.85 339.44 272.07 353.24 279.03C371.24 288.11 412.35 312.62 430.38 330.81C439.15 339.65 444.04 345.29 446.43 351.62C450.03 361.15 446.64 368.62 444.43 373.62C444.06 374.45 443.65 375.36 443.22 376.37C439.011 386.345 433.893 395.913 427.93 404.95C417.3 420.85 406.53 433.16 388.55 441.53C379.318 445.897 369.213 448.109 359 448Z" fill="#213E62"/>
</svg>
